<?xml version="1.0" encoding="utf-8"?>
<!-- Generator: Adobe Illustrator 24.0.2, SVG Export Plug-In . SVG Version: 6.00 Build 0)  -->
<svg version="1.1" id="Layer_1" xmlns="http://www.w3.org/2000/svg" xmlns:xlink="http://www.w3.org/1999/xlink" x="0px" y="0px"
	 viewBox="0 0 50 50" style="enable-background:new 0 0 50 50;" xml:space="preserve">
<style type="text/css">
	.st0{fill:#FFFFFF;}
</style>
<g>
	<path class="st0" d="M25,0C11.2,0,0,11.2,0,25s11.2,25,25,25s25-11.2,25-25S38.8,0,25,0z M18.9,35.4h-5.8V18.9h5.8V35.4z
		 M15.4,16.4c-1.1-0.2-2-1.1-2.2-2.2c-0.4-1.9,1-3.5,2.8-3.5c1.6,0,2.9,1.3,2.9,2.9C18.9,15.3,17.3,16.7,15.4,16.4z M37.9,35.4h-5
		v-8.5c0-1.9-0.2-3.9-2.8-3.9c-2.7,0-3.1,1.6-3.1,3.8v8.7h-4.8V18.9h4.7v1.8c0.7-1.3,1.9-1.8,4.9-1.8c4.2,0,5.8,2,6.2,5.1
		C38,24.7,37.9,35.4,37.9,35.4z"/>
</g>
</svg>
